<svg xmlns="http://www.w3.org/2000/svg" version="1.1" viewBox="156.26 152.46 715.29 701.73">
	<path d="M 492.943 153.001 C 402.399 159.715, 321.967 196.152, 259.321 258.835 C 234.549 283.622, 211.710 315.078, 195.640 346.544 C 189.681 358.213, 189.014 360.937, 191.595 363.079 C 194.688 365.646, 197.874 362.250, 205.275 348.500 C 224.942 311.962, 247.913 281.947, 275.823 256.318 C 326.888 209.427, 384.877 180.174, 452.003 167.440 C 469.693 164.084, 482.831 162.841, 506.286 162.305 C 546.929 161.376, 577.528 165.520, 615 177.027 C 750.116 218.520, 847.310 335.809, 860.975 473.856 C 862.460 488.858, 862.219 527.240, 860.541 543 C 856.757 578.547, 846.484 615.048, 831.319 646.836 C 824.319 661.507, 823.820 662.856, 824.542 665.132 C 825.359 667.707, 829.187 667.504, 831.724 664.750 C 834.475 661.764, 842.755 645.171, 848.316 631.500 C 858.998 605.237, 866.377 576.078, 870.206 545 C 872.222 528.638, 871.902 481.790, 869.656 464.500 C 860.813 396.419, 832.460 332.118, 788.085 279.507 C 777.500 266.957, 753.874 243.706, 741.955 234.110 C 694.808 196.150, 642.010 171.273, 582.500 158.980 C 558.286 153.978, 516.972 151.220, 492.943 153.001 M 572.479 221.801 C 569.718 222.756, 566.052 224.539, 564.334 225.762 C 561.720 227.623, 561.115 227.743, 560.636 226.494 C 559.193 222.733, 552.637 226.750, 552.546 231.452 C 552.511 233.214, 549.311 236.426, 539.648 244.398 C 532.579 250.229, 526.199 255, 525.470 255 C 524.741 255, 520.850 254.560, 516.822 254.023 C 512.795 253.485, 503.425 252.591, 496 252.035 C 488.575 251.479, 480.915 250.751, 478.977 250.418 C 471.403 249.115, 468.174 256.970, 474.863 260.429 C 476.421 261.235, 483.277 262.622, 490.098 263.512 C 496.919 264.402, 504.597 265.579, 507.159 266.128 L 511.818 267.127 507.659 270.907 C 496.389 281.151, 473.024 300, 471.596 300 C 469.124 300, 473.292 291.729, 478.722 285.860 C 483.154 281.068, 479.315 281.859, 473.837 286.866 C 470.588 289.835, 467.152 294.346, 465.055 298.393 C 463.161 302.050, 460.798 305.778, 459.805 306.676 C 457.459 308.799, 457.464 312.695, 459.814 313.441 C 460.811 313.757, 463.849 313.343, 466.564 312.519 C 473.999 310.264, 475.809 310.495, 476.184 313.750 C 476.435 315.932, 477.016 316.500, 479 316.500 C 480.979 316.500, 482.021 315.490, 484 311.650 C 486.328 307.132, 487.426 306.289, 500 299.369 C 507.425 295.282, 515.750 290.438, 518.500 288.603 C 521.250 286.768, 527.775 282.540, 533 279.207 L 542.500 273.148 558.931 275.540 C 567.969 276.855, 576.698 278.396, 578.331 278.965 C 584.408 281.084, 589 279.774, 589 275.922 C 589 272.623, 586.778 271.718, 559.250 263.807 C 556.913 263.135, 555.018 262.341, 555.039 262.043 C 555.061 261.744, 558.098 259.159, 561.789 256.297 C 579.661 242.442, 586 234.866, 586 227.361 C 586 224.105, 585.481 222.750, 583.777 221.557 C 580.964 219.586, 578.746 219.634, 572.479 221.801 M 409.369 232.900 C 406.546 234.553, 402.594 237.825, 400.585 240.172 C 397.164 244.169, 396.792 244.349, 394.716 243.018 C 386.708 237.882, 383.018 237.081, 376.899 239.148 C 368.367 242.031, 358.376 252.339, 361.023 255.528 C 362.826 257.700, 363.607 257.430, 369.562 252.580 C 372.546 250.148, 376.568 247.637, 378.500 247 C 382.360 245.726, 384.685 246.592, 392.839 252.339 C 397.860 255.878, 400.163 255.310, 403.664 249.671 C 410.422 238.787, 420.601 234.852, 432.591 238.489 C 439.616 240.620, 441 240.461, 441 237.520 C 441 233.431, 434.435 230.709, 423.500 230.263 C 414.978 229.915, 414.227 230.055, 409.369 232.900 M 563.519 232.979 C 561.879 234.791, 561.867 235.012, 563.377 235.591 C 565.267 236.316, 568 234.417, 568 232.378 C 568 230.369, 565.588 230.693, 563.519 232.979 M 307 277.091 C 300.370 278.377, 288.083 284.723, 286.809 287.520 C 285.564 290.253, 286.325 293, 288.326 293 C 289.091 293, 292.666 291.462, 296.272 289.583 C 304.403 285.344, 312.373 284.107, 316.800 286.397 C 318.494 287.273, 321.819 290.241, 324.190 292.994 C 329.564 299.235, 332.386 299.538, 338.265 294.505 C 347.606 286.510, 357.940 284.425, 368.296 288.445 C 375.962 291.421, 377.534 287.797, 370.804 282.664 C 362.716 276.495, 352.681 276.805, 339.336 283.636 L 332.173 287.302 326.677 282.607 C 319.240 276.254, 316.003 275.346, 307 277.091 M 384.500 308.881 C 379.663 311.102, 376.550 314.384, 377.336 316.433 C 377.838 317.740, 378.484 317.682, 382.207 315.992 C 388.253 313.248, 391.953 313.494, 397.100 316.982 C 402.948 320.945, 410 321.006, 410 317.093 C 410 314.738, 408.019 313, 405.335 313 C 404.089 313, 400.941 311.650, 398.339 310 C 392.888 306.543, 390.084 306.316, 384.500 308.881 M 506 322.647 C 504.625 322.854, 498.648 323.728, 492.718 324.591 C 486.788 325.453, 478.915 327.023, 475.221 328.080 C 467.211 330.370, 467 330.384, 467 328.622 C 467 327.865, 466.375 326.726, 465.612 326.093 C 464.526 325.192, 463.547 325.511, 461.112 327.559 C 459.400 328.999, 458 331.019, 458 332.047 C 458 333.234, 456.267 334.893, 453.250 336.594 C 441.024 343.488, 437.748 345.634, 436.818 347.357 C 434.659 351.355, 437.645 351.227, 446.634 346.934 C 459.074 340.993, 494.498 329.483, 506.500 327.482 C 512 326.565, 516.888 325.446, 517.363 324.995 C 519.913 322.571, 514.276 321.406, 506 322.647 M 592.189 333.039 C 589.812 335.253, 589.367 338.948, 591.089 342.166 C 592.317 344.461, 591.239 355.494, 585.342 401 C 583.382 416.125, 581.389 432.775, 580.913 438 C 580.437 443.225, 579.106 454.925, 577.955 464 C 575.225 485.530, 574.013 505.464, 575.178 509.683 C 576.151 513.205, 577.985 513.928, 579.948 511.562 C 580.904 510.411, 589.562 462.072, 592.421 441.923 L 593.071 437.346 607.285 435.524 C 615.103 434.522, 622.875 433.505, 624.556 433.264 L 627.611 432.827 626.879 440.163 C 626.477 444.198, 625.390 454.475, 624.465 463 C 622.859 477.792, 622.955 505.114, 624.629 509.476 C 625.507 511.764, 627.897 511.309, 628.437 508.750 C 629.537 503.538, 639.513 433.258, 640.680 422.500 C 640.918 420.300, 642.210 408.375, 643.551 396 C 644.891 383.625, 646.484 366.326, 647.091 357.557 C 648.121 342.666, 648.076 341.529, 646.406 340.307 C 641.648 336.829, 636 340.600, 636 347.256 C 636 350.631, 631.820 396.041, 629.433 418.600 L 628.894 423.701 617.697 424.346 C 602.173 425.240, 595 425.159, 595 424.089 C 595 423.588, 596.834 408.850, 599.075 391.339 C 603.871 353.877, 604.623 336.484, 601.595 333.118 C 599.184 330.437, 595.019 330.402, 592.189 333.039 M 777.688 334.250 C 772.682 338.898, 759.746 361.635, 749.952 383 C 732.934 420.121, 725.348 440.329, 718.981 465.500 L 715.692 478.500 709.096 485 C 701.792 492.198, 697.992 494.594, 695.437 493.614 C 693.948 493.043, 693.798 491.704, 694.217 482.731 C 694.629 473.913, 695.345 470.572, 699.405 458.548 C 704.433 443.653, 704.626 440.446, 700.557 439.425 C 695.869 438.248, 694.418 439.671, 690.510 449.276 C 686.326 459.559, 678.250 475.323, 674.004 481.494 C 669.664 487.803, 661.908 496.061, 660.906 495.442 C 659.327 494.466, 659.925 481.584, 662.022 471.392 C 663.134 465.987, 666.079 455.475, 668.567 448.032 C 673.180 434.231, 673.493 430.624, 670.153 429.750 C 667.232 428.986, 662.276 431.563, 660.681 434.675 C 658.230 439.456, 653.007 456.810, 650.366 468.953 C 647.174 483.624, 647.270 497.204, 650.597 501.679 C 657.587 511.081, 666.952 507.764, 677.055 492.309 L 681.755 485.119 682.446 491.228 C 683.024 496.336, 683.684 497.884, 686.469 500.669 C 692.632 506.832, 701.228 504.098, 710.472 493.033 L 714 488.811 714 493.269 C 714 499.974, 715.790 508.191, 717.861 510.992 C 718.875 512.362, 721.104 513.885, 722.817 514.376 C 727.390 515.688, 735.707 511.342, 741.355 504.689 C 748.280 496.532, 757.709 480.027, 761.339 469.709 C 761.929 468.032, 762.158 468.057, 764.920 470.099 C 771.108 474.674, 782.838 473.373, 790.039 467.313 C 795.028 463.116, 793.035 459.409, 787.340 462.294 C 778.867 466.586, 771.467 464.661, 767.868 457.228 C 765.733 452.817, 765.644 448.303, 767.520 439.463 C 768.441 435.126, 765.379 431.437, 761.638 432.376 C 755.935 433.807, 752.783 444.043, 754.895 454.271 C 756.079 460.001, 756.050 460.148, 751.906 469.597 C 744.566 486.335, 732.252 504, 727.925 504 C 722.667 504, 726.406 475.352, 734.842 451 C 739.234 438.321, 738.793 439.009, 742.103 439.671 C 752.592 441.768, 772.852 412.010, 780.005 384 C 784.946 364.652, 787.722 336.779, 785.030 333.536 C 783.228 331.365, 780.511 331.629, 777.688 334.250 M 546.437 352.630 C 538.776 360.290, 527.680 389.007, 522.002 415.865 C 518.395 432.924, 516.003 454.353, 515.991 469.707 L 515.981 481.500 506.390 487.201 C 494.473 494.284, 487.940 496.014, 482.627 493.493 C 477.103 490.872, 473.800 484.559, 473.219 475.516 L 472.753 468.243 478.126 466.480 C 494.686 461.048, 506.212 445.929, 502.971 433.892 C 500.955 426.407, 491.130 422.152, 482.464 425.012 C 470.117 429.087, 458.796 453.956, 460.473 473.321 C 461.802 488.676, 466.111 496.883, 475.229 501.427 C 486.106 506.847, 497.831 503.702, 510.325 492.015 C 514.654 487.965, 517.130 486.262, 517.405 487.144 C 521.568 500.458, 524.429 505.158, 530.149 508.076 C 537.468 511.810, 546.633 509.598, 552.761 502.620 C 556.010 498.919, 559.453 492.120, 558.540 491.207 C 558.273 490.940, 556.430 492.021, 554.446 493.611 C 544.262 501.764, 539.583 503.518, 535.758 500.614 C 533.072 498.574, 530.128 490.996, 528.864 482.867 L 527.719 475.500 533.254 467 C 549.493 442.059, 561.385 395.634, 559.637 364 C 559.083 353.959, 558.734 352.278, 556.890 350.750 C 553.620 348.040, 550.458 348.609, 546.437 352.630 M 297 358.529 C 247.921 363.201, 190.431 374.223, 184.029 380.188 C 179.937 384, 182.474 388.570, 188.236 387.767 C 190.031 387.517, 196.900 385.871, 203.500 384.108 C 220.021 379.695, 254.793 373.719, 255.040 375.250 C 255.063 375.387, 255.496 394.625, 256.004 418 C 256.852 457.054, 258.710 484.144, 261.611 499.714 C 262.346 503.662, 264.296 505.571, 265.748 503.762 C 267.607 501.446, 269.239 436.195, 268.256 403.500 C 267.759 387, 267.497 373.315, 267.672 373.088 C 268.525 371.985, 311.304 366.600, 335.954 364.492 C 345.554 363.672, 358.942 363, 365.704 363 C 378.754 363, 381.492 361.859, 372.750 360.064 C 356.727 356.773, 322.692 356.083, 297 358.529 M 770.354 366.146 C 758.931 388.544, 740.206 431.540, 741.369 432.702 C 742.336 433.669, 750.011 425.623, 754.985 418.427 C 760.480 410.479, 766.754 396.918, 769.988 386 C 772.015 379.156, 776.089 357.756, 775.481 357.147 C 775.285 356.952, 772.978 361.001, 770.354 366.146 M 549.247 369.226 C 546.242 372.914, 539.358 393.099, 535.512 409.500 C 531.722 425.656, 526.635 461.585, 528.371 459.934 C 528.698 459.622, 531.020 454.672, 533.531 448.934 C 538.622 437.298, 544.982 416.165, 547.490 402.551 C 548.935 394.708, 551.220 368.968, 550.537 368.226 C 550.398 368.075, 549.818 368.525, 549.247 369.226 M 673.229 392.669 C 671.547 393.346, 669 398.361, 669 400.996 C 669 404.578, 673.370 408, 677.944 408 C 685.003 408, 694.582 412.641, 702.035 419.672 C 705.802 423.226, 709.647 426, 710.804 426 C 714.122 426, 714.477 422.489, 711.648 417.662 C 707.833 411.153, 700.932 405.418, 691.777 401.148 C 687.224 399.025, 682.409 396.098, 681.076 394.644 C 678.796 392.158, 676.153 391.493, 673.229 392.669 M 168.737 415.750 C 167.097 417.573, 162.134 440.193, 159.575 457.500 C 155.723 483.555, 155.220 512.107, 158.092 541.621 C 159.545 556.549, 160.063 558, 163.940 558 C 168.571 558, 169.305 555.566, 167.787 545.247 C 166.948 539.545, 166.509 525.709, 166.526 505.500 C 166.554 471.722, 167.232 464.540, 173.181 434.933 C 176.604 417.899, 176.502 414, 172.636 414 C 171.357 414, 169.602 414.788, 168.737 415.750 M 357.327 422.458 C 346.862 427.011, 336.806 446.916, 334.449 467.744 C 333.622 475.059, 335.411 487.111, 338.177 492.848 C 339.330 495.239, 341.674 498.050, 343.387 499.094 C 347.075 501.343, 353.032 501.560, 356.800 499.582 C 363.041 496.306, 370.612 485.998, 377.242 471.750 C 378.969 468.038, 380.685 465, 381.054 465 C 381.423 465, 382.005 467.385, 382.348 470.301 C 383.097 476.679, 386.163 485.909, 389.122 490.697 C 394.529 499.446, 405.260 502.831, 410.614 497.477 C 413.238 494.853, 413.451 491.203, 410.941 491.899 C 403.749 493.892, 400.164 491.728, 397.103 483.546 C 394.227 475.860, 393 464.149, 393 444.399 C 393 425.090, 392.718 424.267, 386.503 425.433 C 381.884 426.300, 380.368 428.876, 379.107 438 C 377.327 450.889, 370.651 467.245, 361.918 480.116 C 357.746 486.265, 352.389 491.292, 350.624 490.715 C 348.471 490.010, 346.755 482.444, 346.720 473.500 C 346.658 457.729, 352.860 439.842, 360.811 432.861 C 363.787 430.248, 364.852 429.881, 367.991 430.383 C 371.230 430.900, 371.846 430.657, 373.065 428.379 C 374.355 425.969, 374.257 425.617, 371.670 423.393 C 368.451 420.623, 362.445 420.232, 357.327 422.458 M 454.828 422.023 C 450.076 424.834, 445.849 436.337, 434.524 477.285 C 433.644 480.467, 432.567 482.850, 432.131 482.581 C 430.855 481.792, 429.183 472.926, 426.005 450.094 C 424.201 437.129, 422.420 427.764, 421.490 426.344 C 418.230 421.369, 409.175 425.022, 410.325 430.849 C 410.613 432.307, 412.660 443.625, 414.873 456 C 420.812 489.208, 422.837 496.952, 426.693 501.213 C 428.789 503.530, 434.213 503.527, 436.311 501.208 C 439.643 497.527, 445.527 478.107, 452.977 446.209 C 454.170 441.098, 456.261 434.396, 457.624 431.315 C 461.155 423.331, 459.865 419.043, 454.828 422.023 M 326.376 425.490 C 321.675 427.842, 312.972 435.654, 309.656 440.500 C 308.903 441.600, 306.873 445.200, 305.146 448.500 C 303.418 451.800, 301.982 454.275, 301.955 454 C 301.928 453.725, 301.544 447.777, 301.102 440.782 C 300.616 433.092, 299.795 427.458, 299.026 426.532 C 297.200 424.331, 292.359 424.641, 289.884 427.116 C 288.077 428.923, 287.858 429.982, 288.385 434.366 C 288.724 437.190, 289.293 453.146, 289.650 469.824 L 290.297 500.149 292.641 501.685 C 295.527 503.576, 299.530 502.746, 301.029 499.946 C 301.626 498.830, 302.556 492.466, 303.096 485.804 C 303.876 476.167, 304.741 471.933, 307.325 465.095 C 314.053 447.292, 323.728 434.639, 334.515 429.536 C 338.509 427.647, 340.032 426.396, 339.803 425.191 C 339.264 422.346, 332.352 422.500, 326.376 425.490 M 485.329 434.941 C 483.585 436.005, 481.037 438.815, 479.667 441.187 C 477.150 445.544, 472.614 458.947, 473.393 459.726 C 474.213 460.546, 480.287 456.776, 484.699 452.710 C 491.713 446.245, 494.443 439.565, 491.965 434.934 C 490.665 432.505, 489.322 432.506, 485.329 434.941 M 515 524.113 C 499.390 525.066, 465.482 527.373, 436 529.487 C 412.769 531.154, 380.482 531.423, 374.500 530.001 C 369.864 528.899, 363.740 529.720, 364.290 531.369 C 364.838 533.013, 373.299 535.941, 382.500 537.670 C 387.027 538.521, 399.399 539.407, 411 539.710 C 431.709 540.252, 446.579 539.549, 490 535.974 C 548.593 531.150, 568.782 530.098, 584.500 531.052 C 597.167 531.821, 600.431 531.387, 597.792 529.286 C 596.112 527.949, 583.759 525.325, 573.026 524.026 C 563.355 522.855, 534.911 522.898, 515 524.113 M 261.450 528.435 C 260.573 529.775, 260 532.137, 260.177 533.685 C 260.433 535.914, 261.072 536.566, 263.250 536.816 C 265.779 537.107, 266 537.481, 266 541.476 L 266 545.819 258.750 546.988 C 254.762 547.631, 246.550 549.264, 240.500 550.617 C 234.450 551.970, 228.327 553.328, 226.894 553.635 C 224.630 554.119, 223.530 553.294, 218.504 547.346 C 212.016 539.666, 211.869 539.565, 208.457 540.421 C 206.711 540.860, 206 541.725, 206 543.412 C 206 545.813, 207.652 547, 210.995 547 C 212.003 547, 214.239 548.913, 215.964 551.250 C 218.764 555.042, 218.923 555.608, 217.445 556.500 C 216.534 557.050, 214.200 558.737, 212.257 560.250 C 209.842 562.130, 207.542 563, 204.985 563 C 200.027 563, 198.023 565.262, 200.527 568.030 C 202.271 569.956, 202.252 570.199, 199.963 575.262 C 196.322 583.315, 196.934 583, 184.907 583 L 174.060 583 171.812 579.959 C 170.356 577.990, 168.847 577.021, 167.532 577.209 C 165.714 577.469, 165.512 578.184, 165.613 584 C 165.747 591.755, 171.216 609.452, 177.107 621.196 C 180.589 628.136, 181.436 629.101, 185.734 631.013 C 192.861 634.184, 200.131 635.868, 214.047 637.573 C 224.861 638.898, 232.321 638.964, 268.047 638.049 C 291.136 637.458, 314.595 636.349, 321 635.545 C 327.325 634.751, 338.575 633.326, 346 632.378 L 359.500 630.655 370.352 619.578 C 387.412 602.161, 394.241 592.188, 391.988 587.977 C 390.893 585.931, 387.115 585.315, 385.450 586.911 C 384.928 587.412, 374.825 588.309, 363 588.905 C 341.837 589.970, 317.844 593.121, 282.746 599.444 C 252.647 604.867, 218.195 607.092, 196.061 605.043 C 175.928 603.180, 176.017 602.136, 196.313 602.063 C 228.433 601.949, 249.898 599.857, 294 592.542 C 328.837 586.764, 340.453 585.641, 364.791 585.699 C 375.951 585.725, 384.951 585.426, 384.791 585.034 C 384.220 583.636, 371.425 572.652, 367.239 569.968 C 363.860 567.800, 361.263 567.092, 354.690 566.544 C 346.697 565.879, 346.201 565.687, 340.759 561.177 C 337.655 558.605, 335.090 555.804, 335.058 554.953 C 334.994 553.236, 328.681 546.840, 325.392 545.159 C 322.211 543.533, 304.001 542.777, 290.632 543.715 L 278.765 544.547 276.382 541.042 C 273.443 536.716, 273.430 536.220, 276.240 535.820 C 280.002 535.283, 279.423 532.484, 274.853 529.123 C 269.379 525.098, 263.824 524.813, 261.450 528.435 M 782.689 527.428 C 773.726 529.838, 774.676 531, 785.607 531 C 791.368 531, 800.257 531.857, 806.557 533.020 C 826.018 536.612, 843.098 536.842, 847.568 533.574 C 849.269 532.330, 849.252 532.205, 847.233 531.124 C 846.062 530.498, 840.919 529.727, 835.802 529.410 C 830.686 529.094, 821.942 528.197, 816.372 527.417 C 803.997 525.686, 789.153 525.690, 782.689 527.428 M 743.476 550.396 C 740.274 551.791, 738 555.547, 738 559.440 C 738 560.730, 737.325 562.045, 736.500 562.362 C 734.547 563.111, 734.600 563.856, 737.072 570.462 C 738.211 573.508, 739.757 576, 740.507 576 C 741.256 576, 743.059 576.452, 744.513 577.005 L 747.157 578.010 745.200 581.255 C 744.124 583.040, 742.952 586.141, 742.596 588.146 C 742.052 591.207, 740.839 592.601, 735.038 596.834 C 727.194 602.557, 724.528 605.939, 725.485 608.952 C 726.414 611.880, 729.514 613.330, 732 612 C 733.100 611.411, 734 610.534, 734 610.051 C 734 609.110, 741.906 603, 743.125 603 C 744.180 603, 745.325 613.400, 744.542 615.869 C 744.151 617.098, 741.134 619.400, 737.190 621.478 C 733.510 623.416, 727.728 627.476, 724.340 630.501 C 720.951 633.525, 717.493 636, 716.655 636 C 713.282 636, 689.173 626.710, 684.468 623.598 C 681.700 621.767, 676.529 617.734, 672.975 614.635 C 666.602 609.076, 663.506 607.894, 661.246 610.154 C 660.373 611.027, 658.369 610.538, 653.037 608.154 C 645.515 604.791, 643.015 604.387, 639.934 606.035 C 637.716 607.222, 637.306 611.905, 639.250 613.852 C 641.112 615.717, 633.514 612.368, 628.787 609.240 C 625.078 606.786, 624.615 606.705, 622.150 608.082 C 620.347 609.089, 619.404 610.537, 619.199 612.613 C 618.808 616.576, 623.512 621.359, 637.897 631.626 C 651.461 641.308, 659.927 646.237, 673 652.065 C 686.504 658.084, 721.819 670.495, 729.466 671.909 C 736.908 673.285, 750.122 673.276, 756 671.891 C 758.475 671.308, 764.325 670.686, 769 670.510 C 773.675 670.334, 778.224 669.899, 779.109 669.542 C 780.642 668.925, 782.199 666.461, 783.343 662.840 C 784.240 660.005, 781.698 653.765, 778.239 650.306 C 775.518 647.584, 774.169 647, 770.610 647 L 766.286 647 763.219 638.750 C 760.531 631.521, 760.159 629.275, 760.212 620.600 L 760.272 610.701 763.719 614.850 C 767.451 619.343, 768.598 619.746, 771.534 617.598 C 772.841 616.643, 773.516 614.813, 773.654 611.848 C 773.765 609.457, 774.161 605.238, 774.534 602.473 C 774.963 599.288, 774.631 594.369, 773.628 589.051 C 771.778 579.238, 769.297 575.903, 762.414 573.976 C 759.987 573.296, 758 572.526, 758 572.264 C 758 572.003, 759.125 570.452, 760.500 568.818 C 763.364 565.414, 763.517 564.267, 761.468 561.559 C 760.661 560.491, 760 558.161, 760 556.381 C 760 550.061, 751.397 546.945, 743.476 550.396 M 308.332 556.902 C 304.940 557.231, 301.790 557.881, 301.332 558.346 C 300.875 558.812, 302.939 561.440, 305.919 564.188 C 310.522 568.430, 311.772 569.096, 314.221 568.606 C 315.807 568.289, 322.031 567.730, 328.052 567.364 C 334.073 566.999, 338.969 566.429, 338.931 566.100 C 338.893 565.770, 335.982 563.362, 332.462 560.750 C 325.466 555.558, 324.237 555.362, 308.332 556.902 M 280.500 559.655 C 279.400 559.888, 277.545 560.279, 276.379 560.526 C 274.464 560.930, 274.269 561.608, 274.379 567.479 C 274.446 571.076, 274.947 573.980, 275.500 573.974 C 277.611 573.952, 297.576 570.952, 299.342 570.391 C 301.028 569.856, 300.925 569.510, 298.220 566.651 C 296.581 564.918, 294.720 562.487, 294.085 561.250 C 293.096 559.325, 292.177 559.017, 287.715 559.116 C 284.847 559.180, 281.600 559.422, 280.500 559.655 M 248.500 564.112 C 245.750 564.601, 242.005 565.252, 240.178 565.559 L 236.857 566.118 237.277 572.297 L 237.698 578.476 241.599 578.204 C 243.745 578.054, 248.650 577.519, 252.500 577.014 C 256.350 576.510, 262.313 575.806, 265.752 575.450 C 269.190 575.094, 272.297 574.329, 272.655 573.749 C 273.284 572.732, 270.719 572.934, 261.155 574.656 L 257.809 575.258 258.155 569.127 C 258.547 562.164, 258.781 562.285, 248.500 564.112 M 218.146 568.404 L 208.792 569.500 205.958 575.750 L 203.123 582 207.312 581.969 C 213.305 581.925, 226.256 580.144, 227.161 579.239 C 228.297 578.103, 229.427 566.974, 228.388 567.154 C 227.899 567.239, 223.291 567.801, 218.146 568.404 M 265.674 583.221 C 261.756 584.259, 259.997 586.397, 261.677 588.077 C 262.759 589.159, 272.875 587.525, 274.372 586.028 C 275.614 584.786, 273.283 581.966, 271.128 582.103 C 270.232 582.160, 267.778 582.663, 265.674 583.221 M 762.652 589.165 C 762.309 590.449, 762.021 593.862, 762.014 596.750 C 762.003 600.756, 762.355 602, 763.500 602 C 764.675 602, 764.997 600.646, 764.985 595.750 C 764.968 588.818, 763.702 585.245, 762.652 589.165 M 346.443 599.418 C 345.376 600.198, 344.832 601.166, 345.234 601.568 C 346.259 602.593, 352.256 600.732, 352.755 599.235 C 353.326 597.521, 348.860 597.651, 346.443 599.418 M 404 622.026 C 378.830 623.402, 380.647 623.173, 388 624.037 C 391.575 624.456, 401.025 625.129, 409 625.533 C 416.975 625.936, 425.525 626.570, 428 626.943 C 436.982 628.294, 413.289 630.500, 389.800 630.500 C 377.865 630.500, 368.480 630.880, 368.944 631.344 C 369.409 631.809, 374.899 633.104, 381.144 634.224 C 393.824 636.496, 417.034 637.108, 435 635.645 C 442.756 635.013, 448.244 635.168, 456 636.240 C 467.189 637.785, 468.618 637.748, 488.040 635.406 C 497.370 634.282, 502.234 634.146, 507.040 634.878 C 521.270 637.043, 584.160 635.728, 591.210 633.117 C 593.742 632.180, 572.497 630.761, 556.679 630.811 C 548.695 630.836, 531.478 628.811, 530.385 627.719 C 529.682 627.016, 579.961 625.492, 596 625.730 C 612.776 625.979, 614.117 624.963, 599.432 623.131 C 588.608 621.781, 537.638 621.689, 523.500 622.995 C 517.493 623.550, 510.106 623.559, 505 623.018 C 493.623 621.812, 420.958 621.098, 404 622.026 M 447.279 627.613 C 447.616 627.950, 450.729 628.829, 454.196 629.567 C 460.127 630.829, 465.420 630.759, 476 629.278 L 480.500 628.648 476 627.898 C 470.552 626.990, 446.417 626.750, 447.279 627.613 M 740.500 634.806 C 734.090 637.521, 732.380 638.757, 733.500 639.867 C 734.753 641.110, 750.911 644.423, 751.729 643.604 C 752.760 642.573, 747.584 633.077, 746 633.095 C 745.175 633.104, 742.700 633.874, 740.500 634.806 M 303.500 640.126 C 295.294 641.493, 283.280 642.389, 265.500 642.962 C 251.200 643.422, 237.700 644.284, 235.500 644.876 C 231.056 646.072, 201.727 646.234, 192.750 645.113 C 185.469 644.203, 185.237 645.536, 191.835 650.379 C 201.781 657.680, 222.391 663.819, 244.479 666.060 C 258.073 667.439, 278.322 666.767, 295.500 664.367 C 304.115 663.163, 308.018 663.059, 313.500 663.887 C 317.350 664.468, 327.597 665.653, 336.272 666.520 C 353.761 668.267, 363.728 667.686, 382.500 663.825 C 388 662.694, 394.627 661.735, 397.226 661.694 C 402.848 661.605, 402.649 661.134, 396.266 659.417 C 391.627 658.169, 391.810 658.133, 403.162 658.067 C 409.576 658.030, 418.351 657.325, 422.662 656.500 C 432.540 654.610, 446.736 654.610, 459 656.500 C 472.714 658.614, 481.926 658.346, 498.154 655.362 L 512.500 652.724 530.369 654.514 C 549.562 656.437, 560.574 656.037, 590 652.349 C 596.875 651.487, 608.785 650.539, 616.467 650.243 C 638.642 649.388, 629.660 647.872, 596.500 646.872 C 572.134 646.138, 565.782 646.247, 556.746 647.559 C 544.562 649.328, 534.976 648.814, 525.500 645.883 C 514.923 642.612, 511.416 642.568, 497.433 645.533 C 482.533 648.693, 472.713 648.948, 457.500 646.573 C 444.110 644.483, 432.244 644.605, 416 647 C 398.422 649.592, 391.807 649.516, 377.259 646.553 C 370.650 645.207, 361.824 643.796, 357.646 643.417 C 347.455 642.493, 348.726 640.611, 359.134 641.214 C 367.385 641.692, 370.064 640.498, 362.750 639.602 C 360.413 639.316, 348.825 638.867, 337 638.605 C 318.641 638.197, 313.747 638.419, 303.500 640.126 M 682 641.416 C 686.812 644.361, 705.076 651.076, 717.653 654.523 C 731.949 658.441, 738.918 659.175, 726.335 655.437 C 721.844 654.103, 710.802 650.341, 701.797 647.078 C 692.792 643.815, 684.092 640.861, 682.462 640.515 L 679.500 639.886 682 641.416 M 507 667.169 C 502.325 667.561, 492.650 668.365, 485.500 668.954 C 478.350 669.544, 466.425 670.925, 459 672.025 C 441.813 674.570, 437.434 674.518, 415.500 671.507 C 394.416 668.612, 382.559 668.388, 368.619 670.620 C 357.813 672.351, 347.218 672.119, 334.314 669.868 C 328.072 668.779, 325.840 668.850, 317.314 670.405 C 311.916 671.390, 302.775 673.052, 297 674.098 C 284.317 676.396, 256.672 677.501, 241.741 676.305 C 234.451 675.722, 231.083 675.776, 231.296 676.472 C 231.956 678.631, 246.477 685.236, 255.712 687.579 C 273.009 691.967, 287.180 693.291, 310 692.651 C 331.966 692.035, 344.729 690.595, 363 686.670 C 380.594 682.890, 384.981 682.662, 403.601 684.555 C 423.265 686.554, 432.476 685.927, 457.500 680.883 C 473.746 677.609, 476.507 677.585, 499.065 680.525 C 508.258 681.723, 510.530 681.708, 516.565 680.405 C 535.756 676.264, 539.110 675.930, 549.500 677.125 C 555.339 677.796, 564.285 678.010, 571 677.639 C 582.924 676.980, 601.711 673.689, 603.445 671.955 C 604.102 671.298, 603.433 671.140, 601.469 671.487 C 583.933 674.583, 572.067 674.611, 553.948 671.598 C 546.001 670.276, 535 668.681, 529.500 668.053 C 524 667.425, 518.600 666.809, 517.500 666.683 C 516.400 666.557, 511.675 666.776, 507 667.169 M 786 675.934 C 782.975 676.347, 775.100 678.286, 768.500 680.243 C 745.237 687.140, 731.338 687.285, 706.191 680.892 C 692.435 677.395, 689.615 677, 678.399 677 C 670.481 677, 663.097 677.611, 658.208 678.670 C 653.969 679.589, 648.681 680.252, 646.458 680.144 C 644.232 680.036, 637.942 681.329, 632.458 683.021 C 626.981 684.712, 617.100 686.999, 610.500 688.105 C 603.900 689.211, 594.225 691.183, 589 692.489 C 583.775 693.794, 578.150 695.084, 576.500 695.355 C 573.474 695.852, 576.400 695.723, 605.500 694.079 C 623.941 693.037, 623.724 693.077, 639.185 687.860 C 645.611 685.692, 654.161 683.550, 658.185 683.101 C 669.018 681.892, 690 683.803, 690 685.999 C 690 686.429, 686.288 687.779, 681.750 688.998 C 671.942 691.633, 671.596 691.809, 672.962 693.455 C 673.805 694.470, 672.025 694.840, 664.261 695.261 C 653.351 695.854, 646.009 697.851, 625 705.943 C 606.363 713.122, 596.729 715.761, 582.612 717.553 C 567.718 719.445, 560.147 721.285, 553 724.753 L 547.500 727.422 551.500 727.701 C 560.936 728.359, 582.128 731.338, 589.634 733.061 C 594.108 734.088, 604.008 737.144, 611.634 739.852 C 639.268 749.664, 643.488 750.464, 663.911 749.755 C 687.459 748.939, 707.697 743.574, 732 731.706 C 738.875 728.348, 744.900 725.408, 745.389 725.171 C 745.878 724.934, 745.946 725.279, 745.539 725.937 C 744.266 727.997, 730.738 737.592, 725.027 740.486 C 707.945 749.143, 682.437 755.049, 654.500 756.818 C 644.363 757.460, 641.491 757.297, 636 755.766 C 632.425 754.770, 624.325 752.837, 618 751.471 C 611.675 750.105, 602.225 748.046, 597 746.895 C 589.020 745.136, 585.340 744.885, 574 745.323 C 558.565 745.919, 553.601 747.114, 532.500 755.318 C 517.356 761.205, 508.698 763.466, 497.010 764.587 C 486.636 765.582, 490.575 766.840, 504.343 766.930 C 517.705 767.016, 530.211 764.613, 549.500 758.251 C 561.178 754.400, 565.087 753.563, 573.067 753.208 C 581.357 752.839, 594.945 754.389, 593.765 755.569 C 593.548 755.785, 590.025 756.611, 585.935 757.402 C 578.888 758.767, 567.643 763.150, 566.518 764.971 C 565.981 765.839, 577.359 766.862, 594 767.441 C 599.225 767.623, 605.975 768.381, 609 769.127 L 614.500 770.482 603.500 771.037 C 597.450 771.342, 590.925 771.179, 589 770.675 C 587.075 770.170, 578.750 769.996, 570.500 770.288 C 553.118 770.902, 546.653 772.437, 529.551 780.012 C 511.514 788.001, 482.876 795.507, 462.338 797.630 C 458.950 797.980, 450.175 797.687, 442.838 796.980 C 435.502 796.272, 424.775 795.654, 419 795.605 C 407.620 795.510, 385.478 797.901, 386.729 799.091 C 388.825 801.083, 408.119 808.339, 421 811.979 C 439.375 817.172, 455.240 820.391, 475.500 823.037 C 493.088 825.335, 507.065 825.184, 532.938 822.417 C 540.328 821.626, 552.703 821.027, 560.438 821.085 C 581.389 821.243, 598.719 817.988, 628.500 808.304 C 640.367 804.446, 666.849 794.138, 673.134 790.932 C 675.260 789.847, 677 789.373, 677 789.878 C 677 792.189, 643.254 807.545, 624.252 813.882 C 617.788 816.037, 611.021 818.562, 609.212 819.493 C 604.760 821.783, 578.764 828.201, 561 831.395 C 498.736 842.590, 436.348 838.650, 387.283 820.423 C 373.841 815.430, 346.872 802.316, 333.549 794.295 C 313.430 782.183, 300.383 772.695, 281.500 756.442 C 258.682 736.803, 240.509 716.058, 220.062 686.308 C 216.588 681.252, 213.127 676.879, 212.372 676.589 C 210.417 675.839, 208.112 676.922, 206.918 679.152 C 204.224 684.187, 232.437 722.122, 258.122 748 C 316.118 806.433, 394.283 843.762, 477.049 852.553 C 506.931 855.727, 550.475 854.148, 577.863 848.898 C 640.364 836.915, 689.050 814.901, 739.500 775.811 C 754.228 764.400, 784.598 734.357, 796.425 719.500 C 806.891 706.353, 822 684.019, 822 681.696 C 822 680.784, 820.987 679.804, 819.750 679.518 C 802.620 675.560, 794.813 674.731, 786 675.934 M 779.250 680.166 C 776.913 680.689, 775 681.467, 775 681.895 C 775 682.747, 794.987 682.257, 799 681.305 L 801.500 680.713 799 679.956 C 795.525 678.904, 784.354 679.023, 779.250 680.166 M 726.500 689.713 C 725.400 689.978, 724.072 690.600, 723.550 691.097 C 722.465 692.128, 733.167 692.330, 736.835 691.348 C 742.461 689.841, 732.511 688.267, 726.500 689.713 M 386 696.467 C 381.325 697.221, 370.300 699.470, 361.500 701.465 C 330.313 708.535, 330.899 708.456, 309 708.475 C 295.656 708.486, 287.123 708.066, 284.556 707.273 C 282.387 706.603, 280.436 706.231, 280.221 706.446 C 278.465 708.202, 300.530 713.809, 314.750 715.221 C 328.968 716.633, 343.099 715.358, 363.032 710.867 C 374.848 708.205, 379.287 707.651, 387.250 707.841 C 392.613 707.970, 399.363 708.124, 402.250 708.184 C 405.137 708.244, 411.775 707.944, 417 707.518 C 424.317 706.922, 429.028 707.154, 437.500 708.528 C 456.837 711.663, 476.868 710.364, 500.138 704.465 C 505.487 703.109, 511.806 701.953, 514.181 701.897 L 518.500 701.793 514.533 700.746 C 511.557 699.960, 506.020 700.149, 492.363 701.500 C 469.285 703.784, 455.848 703.181, 435.500 698.945 C 417.597 695.219, 399.391 694.308, 386 696.467 M 678.250 698.610 C 674.813 700.041, 672 701.614, 672 702.106 C 672 703.212, 671.567 703.261, 677.409 701.489 C 680.296 700.613, 686.680 699.959, 692.909 699.901 C 703.205 699.805, 703.383 699.765, 699.301 698.480 C 690.660 695.757, 685.020 695.792, 678.250 698.610 M 385.500 726.059 C 359.958 732.970, 355.861 733.902, 345.973 735.052 C 340.262 735.716, 332.195 736.010, 328.045 735.706 C 321.154 735.202, 320.760 735.270, 323.500 736.496 C 328.896 738.910, 342.072 740.275, 355.029 739.764 C 364.790 739.378, 370.868 738.459, 383 735.533 L 398.500 731.795 414.220 734.016 C 427.098 735.835, 432.883 736.149, 446.220 735.753 C 456.935 735.435, 463.842 734.771, 466.425 733.810 C 470.163 732.420, 469.636 732.350, 455.425 732.350 C 440.594 732.349, 440.399 732.319, 424.562 727.674 C 405.365 722.044, 401.005 721.864, 385.500 726.059 M 500 732.500 C 500 732.775, 500.225 733, 500.500 733 C 500.775 733, 501 732.775, 501 732.500 C 501 732.225, 500.775 732, 500.500 732 C 500.225 732, 500 732.225, 500 732.500 M 405.500 755.034 C 386.320 760.528, 376.007 762.190, 363.440 761.813 C 357.696 761.641, 352.997 761.807, 352.998 762.182 C 352.999 762.557, 356.488 763.666, 360.750 764.646 C 372.653 767.384, 386.366 766.909, 404.572 763.129 C 422.258 759.458, 426.951 759.329, 445 762.027 C 453.908 763.358, 460.711 763.840, 465 763.445 C 471.932 762.806, 478.002 761.277, 477.997 760.172 C 477.996 759.803, 474.058 759.453, 469.247 759.396 C 461.997 759.309, 458.532 758.644, 449 755.508 C 431.800 749.850, 423.902 749.764, 405.500 755.034" stroke="none" fill-rule="evenodd"/>
</svg>